<?xml version="1.0" encoding="UTF-8"?>
<svg xmlns="http://www.w3.org/2000/svg" version="1.1" viewBox="0 0 1440 811">
  <defs>
    <style>
      .cls-1 {
        fill: none;
      }

      .cls-1, .cls-2 {
        stroke:rgb(14, 14, 14);
        stroke-linecap: round;
        stroke-linejoin: round;
        stroke-width: 1px;
      }
    </style>
  </defs>
  <!-- Generator: Adobe Illustrator 28.7.4, SVG Export Plug-In . SVG Version: 1.2.0 Build 166)  -->
  <g>
    <g id="Layer_1">
      <path class="cls-1" d="M687.41,527.93c9.61,13.48,21.96,26.23,30.11,40.95,5.11,8.42,10.76,21.4,12.92,25.34,3.69,6.93,3.13-2.52,2.87-6.98-1.28-20.4-8.44-45.8-18.38-64.73-5.56-9.93-8.54-16.27-18.04-18.34-6.09-.99-12.93,2.87-14.3,9.08-.84,3.92,1.02,9.02,4.72,14.53l.1.15Z"/>
      <path class="cls-1" d="M585.43,542.23c-6.56,2.24-14.37,10.82-22.8,9.39-11.26-2.07-11.94-16.4-5.3-24.05,15.47-18.54,42.33-13.25,63.54-8.7,39.48,8.95,65.11,38.88,86.79,70.6,5.3,7.85,10.96,17.15,15.81,24.68,3.7,5.77,5.75,8.14,5.46,6.33-3.15-9.06-7.01-15.02-12.53-25.39-17.65-31.61-47.95-74.63-88.46-83.97-16.35-4.03-34.15-4.88-51.14-4.7-19.39.11-35.89,5.2-44.51,20.73-5.19,8.72-8.51,18.71-9.67,28.86-1.12,10.19.55,20.63,7.29,28.78,15.72,19.9,52.07,21.44,66.64-.68,4.48-6.67,6.43-14.91,5.69-22.85-1-9.87-7.27-22.03-16.73-19.06l-.1.03Z"/>
      <path class="cls-1" d="M727,632.41c-.66-7.26-12.93-22.97-18.36-31.13-10.22-14.71-20.48-30.13-33.58-42.62-9.51-9.2-20.9-16.85-32.44-23.09-9.16-4.85-18.81-10.01-27.62-11.46-14.84-1.93-38.58-1.09-52.16,4.47-4.48,1.97-10.19,5.98-8.93,11.38,2.76,6.6,9.75,2.6,14.33-.79,2.57-1.76,5.33-3.61,8.32-4.9,25.43-10.08,63.62,6.32,83.8,22.58,25.41,19.31,48.21,53.42,61.46,72.63,3.67,4.77,5.31,5.21,5.18,2.99v-.04Z"/>
      <path class="cls-1" d="M595.82,631.55c2.74,3.69,11.3,2.8,20.75.03,9.57-2.97,18.25-8.67,27.58-12.62,7.7-3.48,20.67-5.87,25.54-4.49,3.18,1.4-6.46,5.23-7.94,6.14-6.77,3.38-26.65,12.74-25.58,20.4,2.57,4.75,18.2,1.22,26.99-.16,9.23-1.76,18.62-3.98,27.47-4.25,5.64-.26,11.91.38,17.33.77,3.81.08,9.21.92,9.07-3.53-1.58-8.36-16.12-26.32-23.35-33.93-15.07-16.6-38.71-24.79-61.11-22.18-9.56.69-22.1,5.6-27.87,9.68-2.79,1.89-9.13,5.55-.9,5.87,5.47.35,15.26.15,21.65.42,3.69.26,16.5.19,9.13,5.07-8.47,5.32-22.64,12.36-31.25,20.66-3.01,2.99-9.12,8.01-7.52,12.06l.03.05Z"/>
      <path class="cls-2" d="M710.06,682.23c-1.53-5.4-9.69-9.25-15.59-11.57-6.99-2.51-14.91-4.64-22.21-2.41-6.47,1.85-12.02,8.35-11.9,13.97.92,11.34,17.56,11.75,27.33,10.52,6.69-.94,23.27-3.52,22.39-10.42"/>
      <path class="cls-1" d="M712.05,681.59c.04-.08,1.85-1.07,1.84-.95-.22.15-1.7.93-1.82.95"/>
      <path class="cls-1" d="M724.27,693.73c.21-.85.13-.37.01-.02"/>
      <path class="cls-1" d="M721.18,695.06c-2.85-1.38-8.61-.38-15.82,1.78-6.77,2.12-13.75,4.79-19.46,8.5-25.93,16.24-4.1,44.88,19.31,26.13,3.43-2.88,6.26-6.47,8.73-10.24,3.37-5.43,13.85-22.5,7.32-26.14"/>
      <path class="cls-1" d="M717.27,660c-.09,15.34,16.92,25.49,30.5,18.23,14.58-7.48,14.76-28.75.31-36.47-13.59-7.56-30.91,2.57-30.81,18.07v.18Z"/>
      <path class="cls-1" d="M743.03,596.06c.67,2.7,3.35-2.99,4.64-5.7,5.32-11.65,12.27-25.13,21.06-36.73,7.94-11.83,25.35-27.07,25.01-39.23-.65-7.49-9.45-12.02-16.3-9.8-8.42,2.54-12.47,11.14-16.42,18.36-8.96,16.68-16.99,44.13-18.09,63.39-.36,4.85-.34,8.22.09,9.66v.04Z"/>
      <path class="cls-1" d="M914.26,600.25c12.96-.46,26.7-7.29,33.6-17.59,9.34-13.57,6.43-31.49.79-45.91-8.72-22.36-23.82-30.08-49.27-30.34-21.25-.05-43.09.71-62.94,8.59-40.34,16.39-67,61.32-84.24,94.24-3.08,5.98-5.16,10.8-4.97,11.66.02.08.05.13.1.15.52.23,2.65-2.62,6.05-7.96,4.85-7.56,10.43-16.71,15.73-24.51,19.19-27.81,42.41-55.85,75.99-66.76,9.89-3.33,19.88-5.27,30.08-6.47,12.3-1.43,22.29-1.55,32.99,3.71,7.17,3.49,14.09,10.3,14.92,18.44.74,6.16-2.57,12.48-8.63,13.93-8.86,2.28-17.26-7.22-24.15-9.29-9.07-2.49-15.15,8.72-16.34,18.8-2.46,23.08,17.29,40.74,40.11,39.32h.19Z"/>
      <path class="cls-1" d="M832.17,545.87c18.79-10.03,41.59-18.06,62.95-13.21,4.55,1.16,8.69,3.61,12.41,6.2,3.39,2.23,7.3,5.34,10.97,4.53,5.22-1.63,5.25-7.2.64-11.23-10.56-9.53-44.05-10.07-58.18-8.03-5.44.86-11.55,3.42-17.78,6.47-6.04,2.94-13.3,6.83-19.5,10.7-18.43,11.04-33.18,27.05-45.41,44.62-7.26,10.23-14.46,20.75-21.47,30.91-8.05,11.76-9.63,20.04-5.13,15.73,4.43-4.6,7.2-9.84,11.42-15.73,4.01-5.82,8.81-12.54,14.14-19.46,14.46-19.11,34.08-40.07,54.81-51.43l.13-.07Z"/>
      <path class="cls-1" d="M780.46,636.56c8.58-.32,17.52,1.27,25.99,3.01,10.15,2.09,23.63,4.44,29.36,3.63,6.29-.61,4.82-4.87,1.18-8.49-4.15-4.36-10.92-8.17-16.57-11.1-2.74-1.77-18.36-7.84-13.72-9.21,4.24-.82,10.92-.03,18.86,2.2,13.12,3.96,24.87,13.16,38.13,16.11,5.12,1.01,11.79,2.49,16.04-.42,5.12-5.06-12.83-18.02-18.28-21.67-4.81-3.22-11.2-6.72-15.69-9.28-3.6-2.07-5.97-3.63-6.36-4.76-.85-3.44,15.36-2.78,18.8-3.01,2.99-.31,19.39.79,18.3-1.94-1.08-1.94-3.57-3.21-5.49-4.52-7.67-5.29-22.45-9.88-33.61-9.79-16.08-.47-33.44,4.6-45.89,14.44-11.57,9.14-23.66,24.41-31.05,37.98-5.68,11.72,8.3,6.76,19.8,6.82h.19Z"/>
      <path class="cls-1" d="M764.13,681.6c-.09-.02-.76-.37-1.28-.65-.47-.25-.71-.4-.5-.32.62.28,1.11.52,1.79.96"/>
      <path class="cls-1" d="M766.11,682.33c-.86,6.94,15.68,9.46,22.39,10.42,9.76,1.23,26.41.81,27.33-10.52.13-5.62-5.43-12.12-11.9-13.97-7.31-2.23-15.23-.1-22.21,2.41-5.9,2.31-14.07,6.18-15.59,11.57"/>
      <path class="cls-1" d="M751.9,693.71c-.11-.35-.2-.83.01.02"/>
      <path class="cls-1" d="M754.94,695.09c-6.55,3.61,3.97,20.75,7.32,26.14,2.48,3.76,5.3,7.36,8.73,10.24,23.42,18.75,45.24-9.9,19.31-26.13-7.39-4.87-28.19-13.09-35.29-10.28"/>
      <path class="cls-1" d="M722.76,758.03c2,6.77,6.73,14.85,13.24,16.03,4.97,1.3,10.84-2.47,13.82-7.87,8.37-14.35,6.84-32.65,2.31-48.14-2.24-7.21-7.96-24.77-13.26-27.22-4.55-1.38-9.02,11.63-11.03,16.2-2.55,6.49-5.06,14.5-6.4,22.64-1.67,9.82-1.55,19.16,1.28,28.18l.06.19Z"/>
      <path class="cls-1" d="M611.77,248.35c.24,6.62-1.99,6.72-8.08,5.41-5.45-1.15-12.9-3.45-18.98-2.81-9.09.95-13.09,7.46-6.94,12.69,2.49,2.35,6.43,4.62,10.87,6.94,4.5,2.47,27.84,12.92,16.26,14.35-10.98.42-25.03-3.13-36.09,1.61-6.94,2.62-12.26,12.34-7.42,18.2,6.25,7.87,27.24,6.22,37.34,7.15,5.91.26,11.91.73,17.79,1.26,6.77.65,15.23.91,19.16-1.34,14.32-6.54.28-44.14-5.87-54.64-2.65-5.32-11.44-15.48-16.04-14.76-2.35.72-1.84,3.88-1.99,5.87v.06Z"/>
      <path class="cls-1" d="M731.38,51.06c-11.27-1.98-29.57,48.06-33.22,59.65-3.56,10.35-7.18,15.83-17.5,19.46-11.7,4.18-17.79,13.33-20.59,25.98-4.42,17.93-2.99,40.24,3.97,56.67,7.52,17.33,12.34,16.32,16.46-1.46,3.81-17.04,10.75-39.43,18.76-56.68,6.12-13.64,13.23-27.14,21.5-39.3,5.19-8.47,13.14-14.9,15.06-24.45,1.74-8.09,3.74-36.18-4.39-39.85l-.07-.02Z"/>
      <path class="cls-1" d="M867.86,254.46c-6.03.11-1.78-9.12-4.62-11.61-2.05-1.38-4.52.65-6.32,1.8-4.64,2.98-11.14,12.15-14.3,20.02-4.27,10.3-7.85,22.2-8.35,33.14-.32,7.34,2.1,14.19,10.64,15.38,5.96,1,13.61,0,20.31-.52,7.36-.63,15-.91,22.34-1.22,12.52-.86,21.56-.41,27.34-6.86,4.11-5.69.44-13.34-5.21-16.83-9.07-5.93-26.64-2.98-35.51-2.77-4.72.23-8.9-.79-3.57-4.96,6.73-5.55,23.6-10.76,29.6-18.42,3.56-5.14-1.19-9.82-8.73-10.68-7.8-.84-16.38,3-23.55,3.52h-.06Z"/>
      <path class="cls-1" d="M800.02,132.26c-6.45-3.4-12.82-4.1-17.36-11.11-3.93-6.15-5.68-13.35-8.29-20.41-5.07-14.82-15.62-38.54-23.61-46.71-8.51-9.08-11.29,4.36-11.83,11.51-.36,3.92-.39,8.17-.23,12.13.46,7.81.74,13.56,3.67,19.61,1.62,3.14,3.68,5.57,5.94,8.55,3.22,4.17,6.59,8.93,9.58,13.58,11.52,17.79,22.86,42.17,29.92,63.91,3.24,9.79,5.51,19.31,7.33,26.7,2.09,7.51,4.52,20.96,11.41,12.69,11.44-16.46,14.04-42.07,10.27-62.3-2.11-11.96-6.66-23.04-16.7-28.09l-.09-.05Z"/>
      <path class="cls-1" d="M728.66,377c4.8,5.4,2.32-.5,1.45-3.14-12.39-35.96-29.21-100.21-3.14-164.99,5.17-14.5,7.79-35.24,6.65-48.81-.26-4.72-1.1-10.78-4.3-1.85-2.11,5.62-5.47,12.42-8.72,16.93-3.32,4.72-7.43,8.62-10.35,13.67-3.47,5.75-5.46,14.05-8.63,20.85-2.63,6.18-5.84,12-9.15,17.72-1.96,3.64-3.47,6.79-3.43,13.6.02,1.86.12,3.72.26,5.66.72,11.22,3.25,23.38,6.12,34.16,1.3,4.99,2.45,9.14,3.1,12.3.5,2.62.98,4.99.31,7.47-.65,2.4-2.64,3.75-3.66,7.1-.61,2.02-.77,4.07-.72,6.27,1.47,22.49,20.9,46.59,34.13,63l.06.07Z"/>
      <path class="cls-1" d="M638.04,187.97c-13.36,4.59-1.57,43.15,3.05,53.14,2,4.69,4.22,9.03,6.43,12.75,4.13,7.3,10.57,13.07,6.81,21.61-9.76,22.56,2,38.65,17.69,55.17,4.47,4.44,19.38,20,23.12,17.2,1.01-.98.72-3.8-.34-8.03-.76-3-1.89-6.7-3.15-10.81-16.45-46.04-7.67-95.09-36.92-130.97-4.15-5.01-10.82-11.34-16.6-10.07l-.08.02Z"/>
      <path class="cls-2" d="M583.37,342.95c4.37-5.81,8.46-11.24,13.52-15.54,1.52-1.15,4-3.54,5.43-2.49,1.17,2.57-2.9,8.23-4.35,12.56-5.67,15.44,12.35,7.79,21.44,3.03,5.54-2.71,10.74-5.36,16.58-7.11,4.38-1.37,9.48-2.47,13.73-3.59,5.77-1.51,9.7-3.2,2.43-7.05-7.33-3.79-17.61-6.93-26.74-8.63-6.58-1.23-13.59-1.94-20.39-1.99-45.48-.46-81.91,30.66-95.59,43.89-9.09,9.06,5.75,8.3,12.61,5.61,9.7-3.03,17.53-10.06,24.76-17.36,5.32-5.11,19.88-19.52,13.95-4.85-2.05,5.06-6.1,11.77-6.12,16.12.18,7.17,8.51,5.55,15.42.98,5.32-3.53,9.2-8.21,13.2-13.45l.11-.15Z"/>
      <path class="cls-1" d="M717.78,485.41c-7.33-6.5-14.61-4.15-11.69,6.15,2.91,10.3,11.65,21.44,18.23,31.95,2.1,3.22,4.36,6.84,6.51,9.76,4.49,6.27,4.98,2.3,4.35-3.54-1.68-13.79-6.74-34.72-17.26-44.2l-.13-.12Z"/>
      <path class="cls-1" d="M720.49,379.36c9.49,3.24,2.79-4.86-.27-7.45-14.21-13.13-45.43-38.62-73.99-33.93-14.13,2.29-26.18,11.75-34.32,23.09-7.31,10.27-11.38,20.38-6.78,31.86,3.12,7.81,10.8,17.16,19.94,22.08,14.13,8.17,35.63,7.94,46.3-4.96,8.27-9.89,5.88-26-4.74-32.75-5.33-3.53-9.98-.27-12.76,4.59-3.34,5.22-5.64,12.1-11.15,14.65-8.21,3.76-18.39-3.44-19.91-12.34-1.84-8.19,1.85-17.09,7.78-22.85,10.44-9.63,22.9-11.41,38.6-7.47,9.59,2.62,18.78,7.07,27.28,12.18,8.7,5.28,16.39,10.37,23.93,13.28l.09.03Z"/>
      <path class="cls-1" d="M714.37,389.34c-.38-4.14-6.26-10.1-10.38-13.91-15.56-15.04-45.4-23.74-62.37-18.01-11.12,2.82-19.18,13.96-15.63,25.27,1.04,3.43,3.11,6.11,5.1,7.3,2.07,1.39,4.81,1.58,5.53-1.34,1.29-4.6.59-11.16,3.25-15.63,4.74-8.04,16.99-8.11,25.56-6.77,13.97,2.16,28.76,12.81,39.17,19.92,1.85,1.04,8.89,6.04,9.76,3.22v-.05Z"/>
      <path class="cls-1" d="M592.09,378.58c-1.44,1.26-2.51,7.17-3.27,10.32-5.31,26.67-5.56,70.94,21.32,91.01,13.19,10.15,32.71,11.98,46.72,3.81,5.09-3.11,9.28-8.03,7.19-12.97-2.88-4.83-8.57,1.74-13.05,4.18-11.84,7.64-29.07,1.49-39.1-8.31-20.25-19.43-20.23-55.09-19.38-78.3.08-3.71.28-6.01,0-8.8-.09-.67-.24-.99-.45-.96h-.01Z"/>
      <path class="cls-1" d="M585.47,482.32c12.37,12.22,29.93,23.28,48.09,27.08,5.39,1.15,10.91,1.72,16.37,1.5,44.46.23,68.22-74.2,28.91-83.12-12.6-3.04-30.73,2.43-36.28,15.39-2.78,5.27-5.36,20.7,3.13,18.21,6.23-1.72,15.79-8.6,22.18-3.2,6.23,6.72.3,19.28-4.78,25.57-11.99,15.11-33.67,14.45-49.55,3.97-40.82-25.05-34.85-83.91-27.37-116.25.31-2.01,2.34-9.43-.09-6.84-4.43,6.14-7.14,12.68-10.85,23.33-8.71,25.63-7.35,57.18.64,78.41,2.03,6.09,4.94,11.22,9.55,15.86l.08.08Z"/>
      <path class="cls-1" d="M555.19,479.49c6.81,7.4,10.88-4.45,11.19-10.15.93-9.97-.16-21.61-3.48-31.05-5.35-13.28-9.26,6.21-10.39,13.8-1.48,8.89-2.53,20.81,2.61,27.3l.07.09Z"/>
      <path class="cls-1" d="M451.99,440.68c8.89,8.03,23.93,15.85,37.49,17.43,26.96,4.18,49.44-13.11,62.28-29.83.96-1.14,7.74-9.83,4.03-7.12-1.07.79-2.92,2.42-5.62,4.63-23.4,20.14-56.06,28.26-84.85,18.4-5.17-1.33-17.69-7.71-13.38-3.56l.04.04Z"/>
      <path class="cls-1" d="M442.91,418.38c4.29,10.87,16.68,19.39,28.45,23.87,39.03,14.81,78.85-22.42,97.07-50.95.35-.79-.06-.69-1.17.21-4.75,4.06-10.75,10.19-15.81,14.59-14.81,13.55-33.87,24.45-54.3,26.96-44.79,6.3-60.65-44.09-27.61-46.01,13.22,1.81,7.13,18.16,16,21.97,6.97,2.51,16.55-2.92,20.15-9.84,6.71-11.44,4.3-27.88-5.56-36.86-29.43-24.63-69.65,26.48-57.26,55.95l.04.11Z"/>
      <path class="cls-2" d="M738,388.15c-22.42-.06-34.46,24.67-23.87,43.24,7.4,13.45,26.38,17.66,39.12,9.22,22.78-14.95,13.05-52.51-15.07-52.46h-.18Z"/>
      <path class="cls-1" d="M777.75,292.62c4.31-17.03,9.51-35.19,9.39-52.97.04-8.86-4.94-14.15-8.59-21.59-2.11-4.08-4.09-8.48-5.82-12.81-2.14-5.25-3.78-11.1-6.02-15.08-2.94-5.64-7.49-9.92-11.12-15.05-3.83-4.93-7.85-14.72-10.12-20.2-1.14-2.14-2.02-1.8-2.51,1.31-1.15,10.73-.73,21.19,1.49,34.17,2.69,15.12,9.01,29.39,12.99,44.44,15.46,60.08-4.43,117.1-12.76,143.97,0,.95.96.33,2.94-1.87,8.57-10.15,17.54-22.28,24.85-35.14,5.62-10.64,11.65-23.87,8.29-34.9-1.09-2.87-2.86-4.15-3.45-6.41-.66-2.59-.11-5.03.42-7.75l.03-.12Z"/>
      <path class="cls-1" d="M838.06,187.95c-5.8-1.25-12.46,5.11-16.62,10.1-29.26,35.87-20.43,84.89-36.88,130.92-1.35,5.22-5.66,15.92-3.5,18.86,1.09,1.13,3.85-.07,8.07-3.31,4.92-3.82,9.56-8.24,15.05-13.88,15.69-16.52,27.45-32.66,17.69-55.18-3.76-8.54,2.68-14.31,6.81-21.62,2.2-3.72,4.42-8.06,6.43-12.75,4.64-10.07,16.4-48.55,3.04-53.13l-.08-.02Z"/>
      <path class="cls-1" d="M918.39,357.53c3.81-6.33-3.27-15.83-4.36-22.75-.31-5.91,10.16,4.75,13.77,8.04,5.17,4.9,9.94,10.08,15.72,13.75,6.05,4.03,15.66,7.46,21.78,6.86,5.9-.49,4.94-4.06,1.47-7.31-25.75-25.44-75.76-57.85-132.31-37.66-32.2,11.4-2.22,10.55,11.64,17.06,9.79,3.54,39.18,23.26,32.2.21-.39-2.25-4.03-11.08.09-9.29,6.16,3.55,13.46,15.75,18.9,22.43,5.33,6.35,15.74,14.38,21.05,8.72l.05-.07Z"/>
      <path class="cls-1" d="M743.35,454.03c-4.52-4.08-10.51-1.59-13.17,3.29-7.03,11.66-2.07,37.33,5.47,46.33,6.49,5.83,11.15-13.15,12.3-18.22,1.16-5.41,1.78-11.39,1.35-16.72-.48-6.49-2.67-11.86-5.84-14.59l-.11-.1Z"/>
      <path class="cls-1" d="M758.28,485.52c-10.52,9.49-15.58,30.4-17.26,44.2-.62,5.77-.17,9.86,4.35,3.54,2.15-2.92,4.41-6.54,6.5-9.76,6.59-10.52,15.31-21.65,18.23-31.95,2.91-10.25-4.33-12.68-11.69-6.15l-.13.12Z"/>
      <path class="cls-2" d="M752.35,380.12c2.74-.2,5.44-1.58,8.44-3.02,5.13-2.55,12.01-6.79,18.93-11.05,8.5-5.11,17.69-9.57,27.28-12.18,15.7-3.94,28.16-2.16,38.59,7.48,6.6,6.36,10.37,16.75,6.98,25.53-2.57,7.72-12.27,13.2-19.52,9.46-5.01-2.49-7.53-9.38-10.74-14.46-2.54-4.28-6.51-7.81-11.66-5.18-11.55,6.17-14.36,23.19-5.83,33.35,10.67,12.9,32.17,13.14,46.29,4.96,10.18-5.71,17.95-15.37,20.9-24.82,3.07-11.93-1.6-20.86-9.43-31.35-7.07-9.08-16.82-16.76-28.13-19.86-27.85-7.57-58.07,14.52-77.41,31.96-3.28,2.9-9.1,9.03-4.74,9.18h.05Z"/>
      <path class="cls-1" d="M762.72,386.43c-3.95,7.66,6.16,1.55,8.72-.18,5.35-3.38,11.88-8.47,19.48-12.56,9.59-5.29,20.84-9.24,31.86-7.83,5.33.58,10.88,2.49,13.36,6.82,1.9,3.13,2.26,7.03,2.58,10.61.39,3.22.27,8.6,4.45,7.55,4.39-1.16,7.37-6.96,7.74-11.89,1.09-10.36-6.99-19.32-16.85-21.68-21.14-6.64-58.09,7.38-71.3,29.07l-.05.09Z"/>
      <path class="cls-1" d="M854.88,473.62c-9.74,5.04-19.91,6.84-28.73,1.93-4.83-2.85-8.35-6.19-10.89-6.49-2.01-.32-3.47,1.5-3.66,3.41-.28,2.37.83,4.82,2.33,6.72,2.86,3.73,8.6,6.9,15.57,8.57,16.69,4.26,35.98-3.26,46.43-17.65,17.56-22.23,17.01-68.19,8.61-91.03-.97-1.62-.99,1.51-1.01,2.63.98,30.56,2.27,74.34-28.48,91.83l-.16.09Z"/>
      <path class="cls-1" d="M890.8,482.24c4.61-4.63,7.52-9.77,9.55-15.86,7.99-21.27,9.35-52.77.64-78.41-2.74-8.47-6.1-15.57-8.38-19.6-1.37-2.22-1.84-3.37-3.15-4.29-.58-.22-.64.82-.25,3.11.19,1.14.48,2.59.84,4.29,6.17,25.76,12.59,79.56-15.51,106.57-9.62,10.17-24.34,18.01-37.71,17.39-27.27-.14-40.68-37.87-23.48-39.26,5.71-.22,12.3,3.71,17.17,5.21,3.49,1.19,5.19-1.18,5.57-4.19,2.06-21.38-19.32-33.55-38.73-29.41-39.31,8.94-15.54,83.36,28.92,83.12,5.46.23,10.98-.35,16.37-1.5,18.16-3.8,35.72-14.87,48.09-27.08l.08-.08Z"/>
      <path class="cls-1" d="M912.12,478.15c4.35,8.02,10.53,1.41,11.89-5.25,2.5-9.15-1.04-30.92-5.05-37.64-2.59-3.65-4.76-.36-6.72,6.26-2.78,10.71-4.58,26.91-.18,36.5l.06.12Z"/>
      <path class="cls-1" d="M933.41,448.46c-4.3.22-1.84,5.04-.33,7.17,2.84,4.36,8.87,10.4,14.66,13.54,3.46,2.13,10.26,4.17,13.11,2.51,1.97-.93,1.94-3.1.99-4.83-4.11-7.01-18.53-17.62-28.33-18.4h-.1Z"/>
      <path class="cls-1" d="M1024.24,440.63c4.34-4.16-8.3,2.26-13.38,3.56-28.87,9.86-61.4,1.75-84.85-18.4-2.7-2.21-4.56-3.85-5.62-4.63-3.77-2.73,3.31,6.23,4.03,7.12,12.79,16.7,35.4,34.03,62.28,29.82,13.55-1.58,28.61-9.41,37.49-17.43l.04-.04Z"/>
      <path class="cls-1" d="M908.87,391.43c-1.67-1.36-1.68-.8.03,1.77,8.85,12.51,19.44,25,33.81,35.96,17.94,13.51,41.06,21.12,62.11,13.08,11.04-4.32,20.7-10.71,26.54-20.03,14.77-26.13-12.42-67.87-40.81-66.31-7.55.6-14.27,4.79-18.53,11.1-8.43,11.92-6.96,31.64,5.66,39.77,4.89,2.92,11.27,4.23,15.12.9,4.39-4.32,3.17-12.82,7.38-17.29,4.09-5.08,12.62-3.77,17.42.05,16.52,11.86,1.21,44.35-33.15,43.04-5.4-.2-10.78-1.1-16.08-2.52-25.89-6.84-41.59-22.83-59.44-39.49l-.05-.04Z"/>
      <path class="cls-1" d="M1336.4,352.39c-6.56,3.51-15.09,11.3-23.57,17.28-9.26,6.66-19.65,13.13-29.68,19.14-6.13,3.67-11.88,6.99-16.55,9.66-2.97,1.98-16.74,8.59-10.8,9.01,23.29-.42,76.31-6.48,99.15-29.31,4.39-4.74,7.41-9.92,6.9-16.19-1.8-12.43-15.29-15.61-25.33-9.66l-.13.07Z"/>
      <path class="cls-1" d="M1269.62,315.94c-4.53,3.68-9.15,8.08-14.21,12.88-5.92,5.64-12.76,12.04-19.4,17.56-34.77,29.15-73.86,44.04-100.42,55.39-5.9,3.49,11.35,2.44,16.6,2.34,25.49-.71,54.32-6.06,79.9-14.23,29.13-9.04,66.68-26.83,79.17-41.74,4.97-7.11,6.67-17.06,4.34-26.33-2.54-11.14-12.86-18.11-24.25-16.73-7.84,1-14.41,4.97-21.61,10.74l-.13.11Z"/>
      <path class="cls-1" d="M1316.88,414.97c.37,2.2,3.09,3.35,5.38,4.6,19.38,8.61,58.39,22.74,83.03,14.33,14.27-4.79,20.78-21.19,9.16-32.4-12.49-11.07-31.78-8.7-48.46-5.57-9,1.58-48.99,13.14-49.11,18.99v.04Z"/>
      <path class="cls-1" d="M1336.53,477.58c10.03,5.96,23.54,2.77,25.33-9.66.51-6.27-2.51-11.45-6.9-16.19-22.86-22.83-75.82-28.88-99.15-29.31-6.01.39,8.07,7.16,10.8,9.01,4.66,2.68,10.42,5.99,16.55,9.66,10.03,6.02,20.41,12.48,29.68,19.14,8.49,5.98,17,13.76,23.57,17.28l.13.07Z"/>
      <path class="cls-1" d="M1136.02,425.95c-2.18.39-2.31,1.1-.28,2.25,27.31,11.43,70.11,28.37,104.59,59,12.78,10.75,24.38,24.56,37.99,32.88,6.61,3.86,13.15,5.71,19.86,4.52,19.81-3.02,22.81-29.32,13.08-42.85-9.37-11.54-36.25-25.91-63.26-36.31-34.65-12.85-76.36-21.52-111.92-19.5h-.05Z"/>
      <path class="cls-1" d="M105.9,469.13c6.56-3.51,15.09-11.3,23.57-17.28,9.26-6.66,19.65-13.13,29.68-19.14,6.13-3.67,11.88-6.99,16.55-9.66,2.97-1.98,16.74-8.59,10.8-9.01-23.29.42-76.31,6.48-99.15,29.31-4.39,4.74-7.41,9.92-6.9,16.19,1.8,12.43,15.29,15.61,25.33,9.66l.13-.07Z"/>
      <path class="cls-1" d="M172.68,505.57c4.53-3.68,9.15-8.08,14.21-12.88,5.92-5.64,12.76-12.04,19.4-17.56,34.77-29.15,73.86-44.04,100.42-55.39,5.9-3.49-11.35-2.44-16.6-2.34-25.49.71-54.32,6.06-79.9,14.23-29.13,9.04-66.68,26.83-79.17,41.74-4.97,7.11-6.67,17.06-4.34,26.33,2.54,11.14,12.86,18.11,24.25,16.73,7.84-1,14.41-4.97,21.61-10.74l.13-.11Z"/>
      <path class="cls-1" d="M26.75,418.81c14.52,14.75,43.13,9.78,62.21,3.99,8.5-2.54,16.34-5.5,22.5-8.02,4.71-1.94,8.41-3.62,10.73-5.07,5.24-3.04,2.28-5.42-1.7-7.44-19.55-8.79-74.55-30.39-95.26-6.55-5.51,6.82-4.65,16.73,1.42,22.98l.11.12Z"/>
      <path class="cls-1" d="M105.77,343.94c-10.03-5.96-23.54-2.77-25.33,9.66-.51,6.27,2.51,11.45,6.9,16.19,22.86,22.83,75.82,28.88,99.15,29.31,6.01-.39-8.07-7.16-10.8-9.01-4.66-2.68-10.42-5.99-16.55-9.66-10.03-6.02-20.41-12.48-29.68-19.14-8.49-5.98-17-13.76-23.57-17.28l-.13-.07Z"/>
      <path class="cls-1" d="M126.84,330.73c2.04,7.71,6.26,12.56,12.44,16.81,33.12,24.75,96.51,45.81,143.02,47.81,7.47.38,17,1.06,23.93.22,4.37-.8,0-2.59-5.34-4.81-33.83-13.09-70.39-31.4-98.38-55.97-18.97-15.32-35.88-40.37-57.62-37.99-16.63,2.12-21.89,19.93-18.07,33.83l.03.11Z"/>
      <path class="cls-1" d="M926.93,742.35c22.84,1.41,42.56-16.23,40.11-39.32-1.2-10.08-7.25-21.28-16.34-18.8-6.89,2.08-15.3,11.57-24.15,9.29-6.06-1.45-9.37-7.77-8.63-13.93.84-8.14,7.75-14.95,14.92-18.44,10.7-5.26,20.68-5.14,32.99-3.71,10.2,1.21,20.19,3.14,30.08,6.47,33.58,10.91,56.79,38.94,75.99,66.76,5.3,7.8,10.89,16.96,15.73,24.51,3.46,5.29,5.61,8.58,6.15,7.81.19-.86-1.88-5.68-4.97-11.66-17.2-32.9-43.92-77.87-84.24-94.24-19.84-7.89-41.69-8.65-62.94-8.6-25.41.25-40.58,7.99-49.27,30.34-5.64,14.42-8.54,32.34.79,45.91,6.89,10.29,20.63,17.13,33.6,17.59h.19Z"/>
      <path class="cls-1" d="M1008.96,688.04c20.74,11.37,40.34,32.31,54.81,51.43,5.33,6.93,10.14,13.65,14.14,19.46,4.21,5.89,7.01,11.16,11.42,15.73,4.5,4.31,2.92-3.97-5.13-15.73-3.25-4.75-6.22-9.03-9.67-14.01-15.79-23.36-32.39-46.95-57.21-61.52-6.19-3.87-13.46-7.76-19.5-10.7-6.23-3.05-12.33-5.6-17.78-6.47-14.13-2.04-47.6-1.51-58.18,8.03-4.61,4.03-4.6,9.6.64,11.23,3.68.81,7.59-2.3,10.97-4.53,3.72-2.59,7.86-5.04,12.41-6.2,21.36-4.85,44.15,3.17,62.95,13.21l.13.07Z"/>
      <path class="cls-1" d="M1113.48,762.05c6.59-8.8,15.48-24.69,22.75-34.69,18.64-26.44,41.27-52.79,73.31-63.29,14.98-4.92,36.63-9.05,51.72-6.72,8.31,1.49,16.7,5.28,22.12,11.97,4.51,5.26,6.29,13.47,2.63,19.25-2.6,4.38-7.85,6.16-12.65,4.93-6.69-1.5-12.98-7.77-18.34-9.28-6.1-1.87-10.77,3.47-13.3,8.55-5.8,12.02-3.59,27.5,6.45,38.02,14.37,15.25,40.8,14.74,56.62,2.22,9.57-7.28,14.24-18.2,13.87-29.86-.35-12.67-4.43-25.42-11.31-36-10.42-17.13-32.16-19.27-52.49-18.64-17.71.57-35.46,1.64-51.98,7.97-40.72,15.71-67.44,59.58-86.3,95.72-2.95,5.7-6.55,13.82-3.15,9.9l.04-.05Z"/>
      <path class="cls-1" d="M1114,774.55c-.14,2.22,1.5,1.79,5.18-2.99,13.22-19.17,36.08-53.34,61.46-72.62,20.16-16.25,58.36-32.66,83.8-22.58,2.99,1.3,5.76,3.15,8.32,4.91,4.58,3.39,11.57,7.39,14.33.79,1.27-5.4-4.46-9.4-8.93-11.38-8.49-3.82-22.35-4.96-32.72-5.3-6.2-.22-14.27-.11-19.44.83-8.82,1.45-18.46,6.61-27.62,11.46-11.54,6.24-22.93,13.88-32.44,23.09-13.1,12.49-23.36,27.91-33.58,42.62-5.49,8.11-17.68,23.98-18.36,31.13v.04Z"/>
      <path class="cls-2" d="M193.45,752.52c22.84,1.41,42.56-16.23,40.11-39.32-1.2-10.08-7.25-21.28-16.34-18.8-6.89,2.08-15.3,11.57-24.15,9.29-6.06-1.45-9.37-7.77-8.63-13.93.84-8.14,7.75-14.95,14.92-18.44,10.7-5.26,20.68-5.14,32.99-3.71,10.2,1.21,20.19,3.14,30.08,6.47,33.58,10.91,56.79,38.94,75.99,66.76,5.3,7.8,10.89,16.96,15.73,24.51,3.46,5.29,5.61,8.58,6.15,7.81.19-.86-1.88-5.68-4.97-11.66-17.2-32.9-43.92-77.87-84.24-94.24-19.84-7.89-41.69-8.65-62.94-8.59-25.41.25-40.58,7.99-49.27,30.34-5.64,14.42-8.54,32.34.79,45.91,6.89,10.29,20.63,17.13,33.6,17.59h.19Z"/>
      <path class="cls-1" d="M275.48,698.21c20.74,11.37,40.34,32.31,54.81,51.43,5.33,6.93,10.14,13.65,14.14,19.46,4.21,5.89,7.01,11.16,11.42,15.73,4.5,4.31,2.92-3.97-5.13-15.73-3.25-4.75-6.22-9.03-9.67-14.01-15.79-23.36-32.39-46.95-57.21-61.52-6.19-3.87-13.46-7.76-19.5-10.7-6.23-3.05-12.33-5.6-17.78-6.47-14.13-2.04-47.6-1.51-58.18,8.03-4.61,4.03-4.6,9.6.64,11.23,3.68.81,7.59-2.3,10.97-4.53,3.72-2.59,7.86-5.04,12.41-6.2,21.36-4.85,44.15,3.17,62.95,13.21l.13.07Z"/>
      <path class="cls-1" d="M379.99,772.21c6.59-8.8,15.48-24.69,22.75-34.69,18.64-26.44,41.27-52.79,73.31-63.29,14.98-4.92,36.63-9.05,51.72-6.72,8.31,1.49,16.7,5.28,22.12,11.97,4.51,5.26,6.29,13.47,2.63,19.25-2.6,4.38-7.85,6.16-12.65,4.93-6.69-1.5-12.98-7.77-18.34-9.28-6.1-1.87-10.77,3.47-13.3,8.55-5.8,12.02-3.59,27.5,6.45,38.02,14.37,15.25,40.8,14.75,56.62,2.22,9.57-7.28,14.24-18.2,13.87-29.86-.35-12.67-4.43-25.42-11.31-36-10.42-17.13-32.16-19.27-52.49-18.64-17.71.57-35.46,1.64-51.98,7.97-40.72,15.71-67.44,59.58-86.3,95.72-2.95,5.7-6.55,13.82-3.15,9.9l.04-.05Z"/>
      <path class="cls-1" d="M380.51,784.72c-.14,2.22,1.5,1.78,5.18-2.99,13.22-19.17,36.08-53.34,61.46-72.62,20.16-16.25,58.36-32.66,83.8-22.58,2.99,1.3,5.76,3.15,8.32,4.91,4.58,3.39,11.57,7.39,14.33.79,1.27-5.4-4.46-9.4-8.93-11.38-8.49-3.82-22.35-4.96-32.72-5.3-6.2-.22-14.27-.11-19.44.83-8.82,1.45-18.46,6.61-27.62,11.46-11.54,6.24-22.93,13.88-32.44,23.09-13.1,12.49-23.36,27.91-33.58,42.62-5.49,8.11-17.68,23.98-18.36,31.13v.04Z"/>
      <path class="cls-1" d="M554.32,56.26c-22.84-1.41-42.56,16.23-40.11,39.32,1.2,10.08,7.25,21.28,16.34,18.8,6.89-2.08,15.3-11.57,24.15-9.29,6.06,1.45,9.37,7.77,8.63,13.93-.84,8.14-7.75,14.95-14.92,18.44-10.7,5.26-20.68,5.14-32.99,3.71-10.2-1.21-20.19-3.14-30.08-6.47-33.58-10.91-56.79-38.94-75.99-66.76-5.3-7.8-10.89-16.96-15.73-24.51-3.46-5.29-5.61-8.58-6.15-7.81-.19.86,1.88,5.68,4.97,11.66,17.2,32.9,43.92,77.87,84.24,94.24,19.84,7.89,41.69,8.65,62.94,8.6,25.41-.25,40.58-7.99,49.27-30.34,5.64-14.42,8.54-32.34-.79-45.91-6.89-10.29-20.63-17.13-33.6-17.59h-.19Z"/>
      <path class="cls-1" d="M472.29,110.57c-20.74-11.37-40.34-32.31-54.81-51.43-5.33-6.93-10.14-13.65-14.14-19.46-4.21-5.89-7.01-11.16-11.42-15.73-4.5-4.31-2.92,3.97,5.13,15.73,3.25,4.75,6.22,9.03,9.67,14.01,15.79,23.36,32.39,46.95,57.21,61.52,6.19,3.87,13.46,7.76,19.5,10.7,6.23,3.05,12.33,5.6,17.78,6.47,14.13,2.04,47.6,1.51,58.18-8.03,4.61-4.03,4.6-9.6-.64-11.23-3.68-.81-7.59,2.3-10.97,4.53-3.72,2.59-7.86,5.04-12.41,6.2-21.36,4.85-44.15-3.17-62.95-13.21l-.13-.07Z"/>
      <path class="cls-1" d="M367.77,36.56c-6.59,8.8-15.48,24.69-22.75,34.69-18.64,26.44-41.27,52.79-73.31,63.29-14.98,4.92-36.63,9.05-51.72,6.72-8.31-1.49-16.7-5.28-22.12-11.97-4.51-5.26-6.29-13.47-2.63-19.25,2.6-4.38,7.85-6.16,12.65-4.93,6.69,1.5,12.98,7.77,18.34,9.28,6.1,1.87,10.77-3.47,13.3-8.55,5.8-12.02,3.59-27.5-6.45-38.02-14.37-15.25-40.8-14.74-56.62-2.22-9.57,7.28-14.24,18.2-13.87,29.86.35,12.67,4.43,25.42,11.31,36,10.42,17.13,32.16,19.27,52.49,18.64,17.71-.57,35.46-1.64,51.98-7.97,40.72-15.71,67.44-59.58,86.3-95.72,2.95-5.7,6.55-13.82,3.15-9.9l-.04.05Z"/>
      <path class="cls-1" d="M367.25,24.06c.14-2.22-1.5-1.79-5.18,2.99-13.22,19.17-36.08,53.34-61.46,72.62-20.16,16.25-58.36,32.66-83.8,22.58-2.99-1.3-5.76-3.15-8.32-4.91-4.58-3.39-11.57-7.39-14.33-.79-1.27,5.4,4.46,9.4,8.93,11.38,8.49,3.82,22.35,4.96,32.72,5.3,6.2.22,14.27.11,19.44-.83,8.82-1.45,18.46-6.61,27.62-11.46,11.54-6.24,22.93-13.88,32.44-23.09,13.1-12.49,23.36-27.91,33.58-42.62,5.49-8.11,17.68-23.98,18.36-31.13v-.04Z"/>
      <path class="cls-1" d="M1267.53,57.68c-22.84-1.41-42.56,16.23-40.11,39.32,1.2,10.08,7.25,21.28,16.34,18.8,6.89-2.08,15.3-11.57,24.15-9.29,6.06,1.45,9.37,7.77,8.63,13.93-.84,8.14-7.75,14.95-14.92,18.44-10.7,5.26-20.68,5.14-32.99,3.71-10.2-1.21-20.19-3.14-30.08-6.47-33.58-10.91-56.79-38.94-75.99-66.76-5.3-7.8-10.89-16.96-15.73-24.51-3.46-5.29-5.61-8.58-6.15-7.81-.19.86,1.88,5.68,4.97,11.66,17.2,32.9,43.92,77.87,84.24,94.24,19.84,7.89,41.69,8.65,62.94,8.6,25.41-.25,40.58-7.99,49.27-30.34,5.64-14.42,8.54-32.34-.79-45.91-6.89-10.29-20.63-17.13-33.6-17.59h-.19Z"/>
      <path class="cls-1" d="M1185.5,111.99c-20.74-11.37-40.34-32.31-54.81-51.43-5.33-6.93-10.14-13.65-14.14-19.46-4.21-5.89-7.01-11.16-11.42-15.73-4.5-4.31-2.92,3.97,5.13,15.73,3.25,4.75,6.22,9.03,9.67,14.01,15.79,23.36,32.39,46.95,57.21,61.52,6.19,3.87,13.46,7.76,19.5,10.7,6.23,3.05,12.33,5.6,17.78,6.47,14.13,2.04,47.6,1.51,58.18-8.03,4.61-4.03,4.6-9.6-.64-11.23-3.68-.81-7.59,2.3-10.97,4.53-3.72,2.59-7.86,5.04-12.41,6.2-21.36,4.85-44.15-3.17-62.95-13.21l-.13-.07Z"/>
      <path class="cls-1" d="M1080.98,37.99c-6.59,8.8-15.48,24.69-22.75,34.69-18.64,26.44-41.27,52.79-73.31,63.29-14.98,4.92-36.63,9.05-51.72,6.72-8.31-1.49-16.7-5.28-22.12-11.97-4.51-5.26-6.29-13.47-2.63-19.25,2.6-4.38,7.85-6.16,12.65-4.93,6.69,1.5,12.98,7.77,18.34,9.28,6.1,1.87,10.77-3.47,13.3-8.55,5.8-12.02,3.59-27.5-6.45-38.02-14.37-15.25-40.8-14.75-56.62-2.22-9.57,7.28-14.24,18.2-13.87,29.86.35,12.67,4.43,25.42,11.31,36,10.42,17.13,32.16,19.27,52.49,18.64,17.71-.57,35.46-1.64,51.98-7.97,40.72-15.71,67.44-59.58,86.3-95.72,2.95-5.7,6.55-13.82,3.15-9.9l-.04.05Z"/>
      <path class="cls-1" d="M1080.46,25.48c.14-2.22-1.5-1.79-5.18,2.99-13.22,19.17-36.08,53.34-61.46,72.62-20.16,16.25-58.36,32.66-83.8,22.58-2.99-1.3-5.76-3.15-8.32-4.91-4.58-3.39-11.57-7.39-14.33-.79-1.27,5.4,4.46,9.4,8.93,11.38,8.49,3.82,22.35,4.96,32.72,5.3,6.2.22,14.27.11,19.44-.83,8.82-1.45,18.46-6.61,27.62-11.46,11.54-6.24,22.93-13.88,32.44-23.09,13.1-12.49,23.36-27.91,33.58-42.62,5.49-8.11,17.68-23.98,18.36-31.13v-.04Z"/>
      <path class="cls-1" d="M369.34,215.49c-21.34-.12-35.08,22.81-25.32,41.54,10.17,20.15,40.23,20.32,50.65.31,10.06-18.74-3.66-41.98-25.16-41.86h-.18Z"/>
      <path class="cls-1" d="M369.51,606.81c21.34.12,35.08-22.81,25.32-41.54-10.17-20.15-40.23-20.32-50.65-.31-10.06,18.74,3.66,41.98,25.16,41.86h.18Z"/>
      <path class="cls-1" d="M1099.23,228.07c-21.49-.12-35.22,23.11-25.16,41.86,10.42,20.01,40.48,19.83,50.65-.31,9.76-18.73-3.98-41.67-25.32-41.54h-.18Z"/>
      <path class="cls-1" d="M1099.41,619.38c21.34.12,35.08-22.81,25.32-41.54-10.17-20.15-40.23-20.32-50.65-.31-10.06,18.74,3.66,41.98,25.16,41.86h.18Z"/>
    </g>
  </g>
</svg>