<?xml version="1.0" encoding="UTF-8"?>
<svg xmlns="http://www.w3.org/2000/svg" version="1.1" viewBox="0 0 1440 811">
  <defs>
    <style>
      .cls-1 {
        fill: none;
      }

      .cls-1, .cls-2 {
        stroke: #141414;
        stroke-linecap: round;
        stroke-linejoin: round;
        stroke-width: 0px;
      }
    </style>
  </defs>
  <!-- Generator: Adobe Illustrator 28.7.4, SVG Export Plug-In . SVG Version: 1.2.0 Build 166)  -->
  <g>
    <g id="Layer_1">
      <path class="cls-2" d="M710.06,682.23c-1.53-5.4-9.69-9.25-15.59-11.57-6.99-2.51-14.91-4.64-22.21-2.41-6.47,1.85-12.02,8.35-11.9,13.97.92,11.34,17.56,11.75,27.33,10.52,6.69-.94,23.27-3.52,22.39-10.42"/>
      <path class="cls-1" d="M712.05,681.59c.04-.08,1.85-1.07,1.84-.95-.22.15-1.7.93-1.82.95"/>
      <path class="cls-1" d="M724.27,693.73c.21-.85.13-.37.01-.02"/>
      <path class="cls-2" d="M583.37,342.95c4.37-5.81,8.46-11.24,13.52-15.54,1.52-1.15,4-3.54,5.43-2.49,1.17,2.57-2.9,8.23-4.35,12.56-5.67,15.44,12.35,7.79,21.44,3.03,5.54-2.71,10.74-5.36,16.58-7.11,4.38-1.37,9.48-2.47,13.73-3.59,5.77-1.51,9.7-3.2,2.43-7.05-7.33-3.79-17.61-6.93-26.74-8.63-6.58-1.23-13.59-1.94-20.39-1.99-45.48-.46-81.91,30.66-95.59,43.89-9.09,9.06,5.75,8.3,12.61,5.61,9.7-3.03,17.53-10.06,24.76-17.36,5.32-5.11,19.88-19.52,13.95-4.85-2.05,5.06-6.1,11.77-6.12,16.12.18,7.17,8.51,5.55,15.42.98,5.32-3.53,9.2-8.21,13.2-13.45l.11-.15Z"/>
      <path class="cls-2" d="M738,388.15c-22.42-.06-34.46,24.67-23.87,43.24,7.4,13.45,26.38,17.66,39.12,9.22,22.78-14.95,13.05-52.51-15.07-52.46h-.18Z"/>
      <path class="cls-2" d="M752.35,380.12c2.74-.2,5.44-1.58,8.44-3.02,5.13-2.55,12.01-6.79,18.93-11.05,8.5-5.11,17.69-9.57,27.28-12.18,15.7-3.94,28.16-2.16,38.59,7.48,6.6,6.36,10.37,16.75,6.98,25.53-2.57,7.72-12.27,13.2-19.52,9.46-5.01-2.49-7.53-9.38-10.74-14.46-2.54-4.28-6.51-7.81-11.66-5.18-11.55,6.17-14.36,23.19-5.83,33.35,10.67,12.9,32.17,13.14,46.29,4.96,10.18-5.71,17.95-15.37,20.9-24.82,3.07-11.93-1.6-20.86-9.43-31.35-7.07-9.08-16.82-16.76-28.13-19.86-27.85-7.57-58.07,14.52-77.41,31.96-3.28,2.9-9.1,9.03-4.74,9.18h.05Z"/>
      <path class="cls-2" d="M172.68,505.57c4.53-3.68,9.15-8.08,14.21-12.88,5.92-5.64,12.76-12.04,19.4-17.56,34.77-29.15,73.86-44.04,100.42-55.39,5.9-3.49-11.35-2.44-16.6-2.34-25.49.71-54.32,6.06-79.9,14.23-29.13,9.04-66.68,26.83-79.17,41.74-4.97,7.11-6.67,17.06-4.34,26.33,2.54,11.14,12.86,18.11,24.25,16.73,7.84-1,14.41-4.97,21.61-10.74l.13-.11Z"/>
      <path class="cls-2" d="M126.84,330.73c2.04,7.71,6.26,12.56,12.44,16.81,33.12,24.75,96.51,45.81,143.02,47.81,7.47.38,17,1.06,23.93.22,4.37-.8,0-2.59-5.34-4.81-33.83-13.09-70.39-31.4-98.38-55.97-18.97-15.32-35.88-40.37-57.62-37.99-16.63,2.12-21.89,19.93-18.07,33.83l.03.11Z"/>
      <path class="cls-2" d="M193.45,752.52c22.84,1.41,42.56-16.23,40.11-39.32-1.2-10.08-7.25-21.28-16.34-18.8-6.89,2.08-15.3,11.57-24.15,9.29-6.06-1.45-9.37-7.77-8.63-13.93.84-8.14,7.75-14.95,14.92-18.44,10.7-5.26,20.68-5.14,32.99-3.71,10.2,1.21,20.19,3.14,30.08,6.47,33.58,10.91,56.79,38.94,75.99,66.76,5.3,7.8,10.89,16.96,15.73,24.51,3.46,5.29,5.61,8.58,6.15,7.81.19-.86-1.88-5.68-4.97-11.66-17.2-32.9-43.92-77.87-84.24-94.24-19.84-7.89-41.69-8.65-62.94-8.59-25.41.25-40.58,7.99-49.27,30.34-5.64,14.42-8.54,32.34.79,45.91,6.89,10.29,20.63,17.13,33.6,17.59h.19Z"/>
    </g>
  </g>
</svg>