<?xml version="1.0" encoding="UTF-8"?>
<svg xmlns="http://www.w3.org/2000/svg" version="1.1" viewBox="0 0 747.66 1152.92">
  <defs>
    <style>
      .cls-1 {
        fill:rgb(0, 0, 0);
        stroke-linecap: round;
        stroke-linejoin: round;
      }

      .cls-1, .cls-2, .cls-3, .cls-4, .cls-5 {
        stroke: #111;
      }

      .cls-2 {
        fill: #fff;
        stroke-width: 5px;
      }

      .cls-2, .cls-3, .cls-4, .cls-5 {
        stroke-miterlimit: 10;
      }

      .cls-3 {
        fill: none;
      }

      .cls-3, .cls-5 {
        stroke-width: 10px;
      }

      .cls-4 {
        stroke-width: 20px;
      }

      .cls-4, .cls-5 {
        fill:rgb(10, 10, 10);
      }
    </style>
  </defs>
  <!-- Generator: Adobe Illustrator 28.7.4, SVG Export Plug-In . SVG Version: 1.2.0 Build 166)  -->
  <g>
    <g id="Layer_1">
      <path class="cls-2" d="M492.57,674.21"/>
      <path class="cls-2" d="M-58.74,906.87"/>
      <line class="cls-3" x1="472.91" y1="631.35" x2="495.04" y2="513.42"/>
      <rect class="cls-5" x="518.14" y="51.59" width="39.6" height="466.52" rx="19.8" ry="19.8" transform="translate(61.78 -94.35) rotate(10.63)"/>
      <rect class="cls-4" x="54.34" y="686.04" width="640" height="391.08" rx="195.54" ry="195.54"/>
      <rect class="cls-4" x="225.99" y="1080.21" width="298.84" height="54.7" rx="27.35" ry="27.35"/>
      <rect class="cls-4" x="224.92" y="631.35" width="298.84" height="54.7" rx="9.2" ry="9.2"/>
      <g>
        <path class="cls-1" d="M359.2,924.68c11.36,6.49,17.17,25.56,17.17,25.56.84-21.76-10.29-32.91-10.29-32.91-13.03-4.87-6.89,7.35-6.89,7.35Z"/>
        <path class="cls-1" d="M322.03,927.94s-3.58,14.11-10.85,5.27,7.79-13.57,10.85-13.18c3.06.38,24.39-.89,34.6,13.92,0,0,11.09,11.15,13.32,17.5l4.5,7.65.95.14s-15.96-38.18-37.67-40.73c-21.71-2.55-29.37-2.17-33.84,5.87-4.47,8.04-9.32,24.39,10.6,26.69,19.92,2.3,19.15-24.64,7.53-23.11Z"/>
        <path class="cls-1" d="M374.52,962.98l-2.32-3.75s-8.16-12-13.93-20.61c-5.78-8.61-23.11-15.07-23.11-15.07,0,0-27.53-2.27-23.56,6.12,3.96,8.38,7.14-.57,7.14-.57l-2.04-1.13c10.42-7.48,26.51,2.83,26.51,2.83,12.8,3.62,29.68,33.08,29.68,33.08l1.64-.91Z"/>
        <path class="cls-1" d="M326.66,962.52s8.38,4.64,14.61-3.29c6.23-7.94,15.52-2.14,15.52-2.14-9.18-2.95-17.33,9.4-17.33,9.4,3.28,1.47,18.01-2.38,21.64-3.74,3.62-1.36,9.97,3.74,9.97,3.74-.15-4.97-12.13-17.88-12.13-17.88-19.26-14.25-31.04,1.11-31.04,1.11,1.47-2.49,18.46,0,18.46,0-11.44-.23-19.71,12.8-19.71,12.8Z"/>
        <path class="cls-1" d="M369.13,980.91c-3.53,1.2-10.3-5.25-10.3-5.25,0,0-9.97.34-7.48,7.02,2.18,5.85,14.71-.19,17.78-1.77"/>
        <path class="cls-1" d="M369.13,980.91c.44-.23.68-.36.68-.36-.21.16-.44.28-.68.36"/>
        <path class="cls-1" d="M373.62,985.36c.03-.11.05-.17.05-.17,0,.06-.02.12-.05.17"/>
        <path class="cls-1" d="M373.62,985.36c-.64,1.46-7.54,3.33-7.54,3.33-13.82-.68-9.97,8.99-9.97,8.99,10.23,12,16.88-10.12,17.51-12.31"/>
        <circle class="cls-1" cx="378.66" cy="972.95" r="7.6"/>
        <path class="cls-1" d="M380.96,950.24s5.81-19.07,17.17-25.56c0,0,6.14-12.22-6.89-7.35,0,0-11.12,11.14-10.29,32.91Z"/>
        <path class="cls-1" d="M442.83,951.06c19.92-2.3,15.07-18.64,10.6-26.69-4.47-8.04-12.13-8.43-33.84-5.87-21.71,2.55-37.67,40.73-37.67,40.73l.95-.14,4.5-7.65c2.22-6.35,13.32-17.5,13.32-17.5,10.22-14.81,31.54-13.54,34.6-13.92s18.13,4.34,10.85,13.18c-7.28,8.84-10.85-5.27-10.85-5.27-11.62-1.53-12.39,25.41,7.53,23.11Z"/>
        <path class="cls-1" d="M414.14,930.81s16.08-10.31,26.51-2.83l-2.04,1.13s3.17,8.95,7.14.57c3.96-8.38-23.56-6.12-23.56-6.12,0,0-17.33,6.46-23.11,15.07-5.78,8.61-13.93,20.61-13.93,20.61l-2.32,3.75,1.64.91s16.88-29.45,29.68-33.08Z"/>
        <path class="cls-1" d="M396.24,962.75c3.62,1.36,18.35,5.21,21.64,3.74,0,0-8.16-12.35-17.33-9.4,0,0,9.29-5.79,15.52,2.14,6.23,7.94,14.61,3.29,14.61,3.29,0,0-8.27-13.03-19.71-12.8,0,0,16.99-2.5,18.46,0,0,0-11.78-15.36-31.04-1.11,0,0-11.98,12.9-12.13,17.88,0,0,6.35-5.1,9.97-3.74Z"/>
        <path class="cls-1" d="M388.2,980.91c-.24-.08-.47-.2-.68-.36,0,0,.25.14.68.36"/>
        <path class="cls-1" d="M388.2,980.91c3.07,1.59,15.6,7.63,17.78,1.78,2.49-6.68-7.48-7.02-7.48-7.02,0,0-6.78,6.45-10.3,5.25"/>
        <path class="cls-1" d="M383.71,985.36c-.03-.06-.04-.12-.05-.17,0,0,.02.06.05.17"/>
        <path class="cls-1" d="M383.71,985.36c.63,2.19,7.27,24.31,17.51,12.32,0,0,3.85-9.67-9.97-8.99,0,0-6.9-1.86-7.54-3.33"/>
        <path class="cls-1" d="M373.05,1008.91c1.43,5.41,5.62,6.06,5.62,6.06,0,0,4.19-.66,5.62-6.06,3.7-9.74-5.62-24.64-5.62-24.64,0,0-9.31,14.89-5.62,24.64Z"/>
        <path class="cls-1" d="M330.75,821.12c4.1,4.06,3.07,7.6,3.07,7.6-15.25-17.13-15.82.06-15.82.06,11.72-.91,16.5,8.08,16.5,8.08-30.72-10.81-18.66,7.74-18.66,7.74,7.28-3.75,27.76,1.37,27.76,1.37-3.42-33.39-13.75-25.63-12.86-24.85Z"/>
        <path class="cls-1" d="M378.28,748.19c-10.02,5.17-16.13,31.99-16.13,31.99l-5.95-4.52c-16.37,22.62.75,36.57.75,36.57,4.52-31.51,21.33-45.24,21.33-45.24v-18.8Z"/>
        <path class="cls-1" d="M423.51,828.72s-1.02-3.54,3.07-7.6c.89-.78-9.44-8.54-12.86,24.84,0,0,20.48-5.12,27.76-1.37,0,0,12.06-18.55-18.66-7.74,0,0,4.78-8.99,16.5-8.08,0,0-.57-17.2-15.82-.06Z"/>
        <path class="cls-1" d="M401.13,775.66l-5.95,4.52s-6.11-26.82-16.13-31.99v18.8s16.8,13.73,21.33,45.24c0,0,17.13-13.95.75-36.57Z"/>
        <path class="cls-1" d="M377.02,869.48s-17.58-39.19,0-65.56v-17.33s-2.57,2.75-3.91,12.65l-2.85-1.79s-6.74,8.94-5.5,18.57l-3.85-2.2s-1.93,16.51,4.95,26.41c0,0-13.99.45,11.16,29.25Z"/>
        <path class="cls-1" d="M341.1,798.74c-2.5,25.03,10.01,31.41,10.01,31.41-19.23,5.12,12.97,27.54,12.97,27.54-13.59-24.2-.43-43.04-22.99-58.94Z"/>
        <path class="cls-1" d="M321.99,856.58c2.37-10.58,9.12-7.11,9.12-7.11-4.19-.36-7.48,10.15-7.48,10.15,13.25-1.49,11.42-10.79,26.08-7.26-28.96-20.78-54.64,11.12-54.64,11.12,14.21,4.12,12.3-11.01,23.54-13.24-3.62,2.33-7.92,12.18-7.92,12.18,0,0,8.94,4.74,11.31-5.84Z"/>
        <path class="cls-1" d="M372.03,908.99c-5.02-5.27-7.42,3.25-4.99,3.92,2.43.68,9.98,14.47,9.98,14.47,0,0,.03-13.12-4.99-18.39Z"/>
        <path class="cls-1" d="M371.55,871.58l2.96-.81s-31.28-35.85-44.53-1.29c0,0-2.43,13.23,14.88,15.38,17.31,2.14,14.34-21.39,1.62-17.88,8.21,18.03-20.35,10.04-8.12-2.96,6.22-5.16,14.69-8.4,33.18,7.56Z"/>
        <path class="cls-1" d="M368.23,874.87l2.12-1.73c-10.47-12.83-27.74-13.77-31.96-6.82-3.92,11.84,12.1,10.36,5.21,2.73-2.3,3.16-2.83-.68-2.83-.68,7.93-12.9,27.45,6.49,27.45,6.49Z"/>
        <path class="cls-1" d="M326.66,869.48c-3.11,2.45-8.28,35.18,9.39,39.89,16.27,3.15,16.15-6.81,16.15-6.81-2.78-5.65-6.19-1-5.02-.33,1.16.66,1.66,7.97-11.95,2.66-13.61-5.31-8.56-35.41-8.56-35.41Z"/>
        <path class="cls-1" d="M321.76,906.08c36.29,33.81,52.33-14.81,35.99-18.63-23.28-2.49-14.14,15.27-14.14,15.27,6.07-13.12,10.52-3.15,10.52-3.15,0,0,.17,20.75-20.75,10.41-20.92-10.34-8.63-45.97-8.63-45.97-15.77,21.06-2.99,42.06-2.99,42.06Z"/>
        <path class="cls-1" d="M311.2,903.73s3.26,6.31,4.75,2.36c1.49-3.95-2.5-16.35-2.5-16.35-4.48,11.58-2.25,13.99-2.25,13.99Z"/>
        <path class="cls-1" d="M273.62,890.89c23.24,20.87,38.68-6.04,38.68-6.04-17.6,19.48-38.68,6.04-38.68,6.04Z"/>
        <path class="cls-1" d="M272.12,884.85s3,9.58,17.76,9.16c14.76-.42,26.99-21.84,26.99-21.84-35.34,41.36-56.36-2.74-32.3,0,0,0,3.65,4.81-1.49,7.14,0,0,11.91,11.6,13.34-10.97-11.27-20.51-32.88,7.94-24.3,16.5Z"/>
        <path class="cls-1" d="M378.67,873.14c-13.54-.2-13.54,21.08,0,20.88,13.54.2,13.54-21.08,0-20.88Z"/>
        <path class="cls-1" d="M391.47,840.23c6.88-9.9,4.95-26.41,4.95-26.41l-3.85,2.2c1.24-9.63-5.5-18.57-5.5-18.57l-2.85,1.79c-1.34-9.9-3.91-12.65-3.91-12.65v17.33c17.58,26.37,0,65.56,0,65.56,25.15-28.8,11.16-29.25,11.16-29.25Z"/>
        <path class="cls-1" d="M416.23,798.75c-22.59,15.97-9.38,34.7-22.99,58.94,0,0,32.2-22.42,12.97-27.54,0,0,12.52-6.37,10.01-31.41Z"/>
        <path class="cls-1" d="M446.65,862.42s-4.3-9.85-7.92-12.18c11.35,2.27,9.19,17.31,23.54,13.24,0,0-25.69-31.9-54.64-11.12,14.72-3.52,12.77,5.75,26.08,7.26,0,0-3.28-10.52-7.48-10.15,11.71-4.66,6,19.71,20.42,12.95Z"/>
        <path class="cls-1" d="M381.12,897.59c-1.91-1.67-2.99-1.66-4.9,0-4.91,4.4,2.45,18.16,2.45,18.16,0,0,7.36-13.77,2.45-18.16Z"/>
        <path class="cls-1" d="M385.3,908.99c-5.02,5.27-4.99,18.39-4.99,18.39,0,0,7.54-13.79,9.98-14.47,2.43-.68.03-9.2-4.99-3.92Z"/>
        <path class="cls-1" d="M382.82,870.77l2.96.81c18.49-15.96,26.96-12.71,33.18-7.56,12.23,13.01-16.32,20.98-8.12,2.96-12.71-3.52-15.69,20.02,1.62,17.88,17.31-2.14,14.88-15.38,14.88-15.38-13.26-34.56-44.53,1.29-44.53,1.29Z"/>
        <path class="cls-1" d="M386.98,873.14l2.12,1.73s19.52-19.4,27.45-6.49c0,0-.53,3.85-2.83.68-6.89,7.63,9.14,9.09,5.21-2.73-4.23-6.95-21.48-6-31.96,6.82Z"/>
        <path class="cls-1" d="M422.12,904.89c-13.61,5.31-13.12-1.99-11.95-2.66,1.16-.66-2.25-5.31-5.02.33,0,0-.12,9.96,16.15,6.81,17.67-4.77,12.51-37.32,9.39-39.89,0,0,5.06,30.1-8.56,35.41Z"/>
        <path class="cls-1" d="M435.57,906.08s12.78-21-2.99-42.06c0,0,12.29,35.63-8.63,45.97-20.92,10.34-20.75-10.41-20.75-10.41,0,0,4.45-9.96,10.52,3.15,0,0,9.14-17.77-14.14-15.27-16.35,3.83-.3,52.44,35.99,18.63Z"/>
        <path class="cls-1" d="M441.38,906.08c1.49,3.95,4.75-2.36,4.75-2.36,0,0,2.23-2.41-2.25-13.99,0,0-3.99,12.4-2.5,16.35Z"/>
        <path class="cls-1" d="M449.51,894.93s1,9.96,10.79,8.63c3.6-5.3-7.34-3.18-10.79-8.63Z"/>
        <path class="cls-1" d="M483.71,890.9s-21.09,13.44-38.68-6.04c0,0,15.44,26.91,38.68,6.04Z"/>
        <path class="cls-1" d="M440.46,872.18s12.22,21.42,26.99,21.84c14.76.42,17.77-9.16,17.77-9.16,8.58-8.61-13.06-37-24.3-16.5,1.44,22.57,13.34,10.97,13.34,10.97-5.15-2.32-1.49-7.14-1.49-7.14,24.11-2.69,2.94,41.32-32.3,0Z"/>
        <path class="cls-1" d="M636.48,860.24c-1.32,4.76-28.3,19.51-28.3,19.51,0,0,25.66.06,35.97-9.75,10.32-9.82-6.35-14.52-7.67-9.76Z"/>
        <path class="cls-1" d="M613.47,844.9c-12.7,22.22-49.99,33.59-49.99,33.59,42.56,1.63,64.36-20.12,64.36-20.12,9.52-25.48-14.37-13.47-14.37-13.47Z"/>
        <path class="cls-1" d="M630.92,882.98c.02.63,35.74,17.51,37.82,0-1.94-17.51-38.01-.62-37.82,0Z"/>
        <path class="cls-1" d="M636.48,905.71c1.32,4.76,17.99.06,7.67-9.75-10.31-9.82-35.97-9.76-35.97-9.76,0,0,26.98,14.75,28.3,19.51Z"/>
        <path class="cls-1" d="M563.48,887.46s37.29,11.37,49.99,33.59c0,0,23.89,12.01,14.37-13.47,0,0-21.8-21.76-64.36-20.12Z"/>
        <path class="cls-1" d="M112.2,901.31c1.32-4.76,28.3-19.51,28.3-19.51,0,0-25.66-.06-35.97,9.75-10.32,9.82,6.35,14.52,7.67,9.76Z"/>
        <path class="cls-1" d="M135.21,916.65c12.7-22.22,49.99-33.59,49.99-33.59-42.56-1.63-64.36,20.12-64.36,20.12-9.52,25.48,14.37,13.47,14.37,13.47Z"/>
        <path class="cls-1" d="M82.23,883.37c8.6,9.61,35.53-4.79,35.53-4.79-.04-.64-35.72-17.5-37.82,0,0,0-.17,2.71,2.3,4.79Z"/>
        <path class="cls-1" d="M112.2,855.85c-1.32-4.76-17.99-.06-7.67,9.75,10.31,9.82,35.97,9.76,35.97,9.76,0,0-26.98-14.75-28.3-19.51Z"/>
        <path class="cls-1" d="M120.84,853.97s21.8,21.76,64.36,20.12c0,0-37.29-11.37-49.99-33.59,0,0-23.89-12.01-14.37,13.47Z"/>
      </g>
    </g>
  </g>
</svg>