<?xml version="1.0" encoding="UTF-8"?>
<svg xmlns="http://www.w3.org/2000/svg" version="1.1" viewBox="0 0 1728 864">
  <defs>
    <style>
      .cls-1 {
        fill:rgb(16, 16, 16);
        stroke: #000;
        stroke-linecap: round;
        stroke-linejoin: round;
      }
    </style>
  </defs>
  <!-- Generator: Adobe Illustrator 28.7.4, SVG Export Plug-In . SVG Version: 1.2.0 Build 166)  -->
  <g>
    <g id="Layer_1">
      <path class="cls-1" d="M823.27,549.85c32.31,18.46,48.85,72.7,48.85,72.7,2.38-61.9-29.26-93.59-29.26-93.59-37.06-13.85-19.59,20.9-19.59,20.9Z"/>
      <path class="cls-1" d="M717.56,559.14s-10.17,40.13-30.87,14.98c-20.7-25.15,22.16-38.59,30.87-37.5,8.72,1.09,69.37-2.54,98.43,39.59,0,0,31.56,31.71,37.88,49.76l12.81,21.76,2.7.39s-45.4-108.6-107.14-115.86c-61.74-7.26-83.54-6.18-96.25,16.71-12.71,22.88-26.51,69.37,30.15,75.91,56.66,6.54,54.48-70.1,21.43-65.74Z"/>
      <path class="cls-1" d="M866.83,658.78l-6.61-10.66s-23.2-34.13-39.63-58.61c-16.43-24.49-65.73-42.85-65.73-42.85,0,0-78.29-6.44-67.01,17.4,11.28,23.84,20.3-1.61,20.3-1.61l-5.8-3.22c29.64-21.26,75.39,8.05,75.39,8.05,36.41,10.31,84.41,94.08,84.41,94.08l4.67-2.58Z"/>
      <path class="cls-1" d="M730.71,657.49s23.84,13.21,41.56-9.37c17.72-22.58,44.14-6.1,44.14-6.1-26.1-8.38-49.29,26.74-49.29,26.74,9.34,4.19,51.23-6.77,61.54-10.63,10.31-3.87,28.37,10.63,28.37,10.63-.42-14.14-34.49-50.84-34.49-50.84-54.77-40.53-88.28,3.15-88.28,3.15,4.19-7.1,52.52,0,52.52,0-32.54-.64-56.06,36.41-56.06,36.41Z"/>
      <path class="cls-1" d="M851.52,709.79c-10.03,3.41-29.31-14.93-29.31-14.93,0,0-28.35.97-21.26,19.98,6.21,16.65,41.83-.53,50.57-5.05"/>
      <path class="cls-1" d="M851.52,709.79c1.24-.64,1.94-1.03,1.94-1.03-.6.46-1.25.79-1.94,1.03"/>
      <path class="cls-1" d="M864.28,722.45c.09-.32.14-.5.14-.5-.01.16-.07.33-.14.5"/>
      <path class="cls-1" d="M864.28,722.45c-1.81,4.16-21.45,9.46-21.45,9.46-39.31-1.93-28.35,25.57-28.35,25.57,29.11,34.12,48.02-28.79,49.8-35.03"/>
      <circle class="cls-1" cx="878.64" cy="687.14" r="21.62"/>
      <path class="cls-1" d="M885.16,622.54s16.54-54.23,48.85-72.69c0,0,17.47-34.74-19.58-20.9,0,0-31.64,31.7-29.26,93.59Z"/>
      <path class="cls-1" d="M1061.14,624.88c56.66-6.54,42.86-53.03,30.15-75.91-12.71-22.88-34.5-23.97-96.25-16.71-61.74,7.26-107.14,115.86-107.14,115.86l2.7-.39,12.81-21.76c6.33-18.06,37.88-49.76,37.88-49.76,29.06-42.13,89.71-38.5,98.43-39.59s51.57,12.35,30.87,37.5c-20.7,25.15-30.87-14.98-30.87-14.98-33.05-4.36-35.23,72.28,21.43,65.74Z"/>
      <path class="cls-1" d="M979.53,567.28s45.75-29.32,75.39-8.05l-5.8,3.22s9.02,25.45,20.3,1.61c11.28-23.84-67.01-17.4-67.01-17.4,0,0-49.29,18.36-65.73,42.85-16.43,24.49-39.63,58.61-39.63,58.61l-6.61,10.66,4.67,2.58s48.01-83.77,84.41-94.08Z"/>
      <path class="cls-1" d="M928.62,658.13c10.31,3.87,52.19,14.82,61.54,10.63,0,0-23.2-35.12-49.29-26.74,0,0,26.42-16.48,44.14,6.1,17.72,22.58,41.56,9.37,41.56,9.37,0,0-23.52-37.05-56.06-36.41,0,0,48.33-7.1,52.52,0,0,0-33.51-43.69-88.28-3.15,0,0-34.07,36.7-34.49,50.84,0,0,18.06-14.5,28.37-10.63Z"/>
      <path class="cls-1" d="M905.75,709.79c-.69-.24-1.35-.57-1.94-1.03,0,0,.7.39,1.94,1.03"/>
      <path class="cls-1" d="M905.75,709.79c8.75,4.52,44.37,21.7,50.57,5.05,7.09-19.01-21.26-19.98-21.26-19.98,0,0-19.28,18.33-29.31,14.93"/>
      <path class="cls-1" d="M893,722.45c-.07-.17-.13-.33-.14-.5,0,0,.05.18.14.5"/>
      <path class="cls-1" d="M893,722.45c1.78,6.24,20.69,69.15,49.8,35.03,0,0,10.95-27.5-28.35-25.57,0,0-19.64-5.3-21.45-9.46"/>
      <path class="cls-1" d="M862.66,789.42c4.07,15.37,15.98,17.24,15.98,17.24,0,0,11.91-1.86,15.98-17.24,10.51-27.72-15.98-70.07-15.98-70.07,0,0-26.49,42.36-15.98,70.07Z"/>
      <path class="cls-1" d="M742.35,255.3c11.65,11.54,8.74,21.61,8.74,21.61-43.37-48.73-44.99.18-44.99.18,33.34-2.59,46.93,22.98,46.93,22.98-87.39-30.75-53.08,22.01-53.08,22.01,20.71-10.68,78.97,3.88,78.97,3.88-9.73-94.97-39.1-72.89-36.57-70.67Z"/>
      <path class="cls-1" d="M877.54,47.87c-28.49,14.71-45.89,90.99-45.89,90.99l-16.92-12.87c-46.57,64.34,2.14,104.02,2.14,104.02,12.87-89.62,60.66-128.68,60.66-128.68v-53.46Z"/>
      <path class="cls-1" d="M1006.19,276.92s-2.91-10.07,8.74-21.61c2.52-2.22-26.85-24.3-36.57,70.67,0,0,58.26-14.56,78.97-3.88,0,0,34.31-52.76-53.08-22.01,0,0,13.59-25.57,46.93-22.98,0,0-1.62-48.92-44.99-.18Z"/>
      <path class="cls-1" d="M942.55,126l-16.92,12.87s-17.39-76.29-45.88-91v53.46s47.79,39.06,60.66,128.68c0,0,48.71-39.68,2.15-104.02Z"/>
      <path class="cls-1" d="M873.95,392.84s-50-111.47,0-186.48v-49.29s-7.3,7.82-11.11,35.99l-8.11-5.09s-19.17,25.43-15.65,52.82l-10.95-6.26s-5.48,46.95,14.08,75.11c0,0-39.79,1.28,31.74,83.19Z"/>
      <path class="cls-1" d="M771.8,191.65c-7.12,71.2,28.48,89.33,28.48,89.33-54.7,14.56,36.9,78.32,36.9,78.32-38.64-68.82-1.23-122.43-65.38-167.65Z"/>
      <path class="cls-1" d="M717.44,356.16c6.74-30.08,25.93-20.23,25.93-20.23-11.93-1.04-21.27,28.87-21.27,28.87,37.7-4.25,32.49-30.69,74.17-20.66-82.36-59.11-155.42,31.62-155.42,31.62,40.41,11.72,34.97-31.32,66.96-37.65-10.3,6.62-22.53,34.64-22.53,34.64,0,0,25.42,13.49,32.16-16.6Z"/>
      <path class="cls-1" d="M859.76,505.23c-14.28-15-21.11,9.23-14.19,11.15,6.92,1.92,28.37,41.16,28.37,41.16,0,0,.09-37.31-14.19-52.31Z"/>
      <path class="cls-1" d="M858.4,398.81l8.43-2.31s-88.96-101.97-126.66-3.66c0,0-6.93,37.64,42.32,43.73,49.24,6.1,40.78-60.84,4.62-50.84,23.34,51.29-57.88,28.57-23.08-8.41,17.7-14.67,41.79-23.91,94.38,21.49Z"/>
      <path class="cls-1" d="M848.95,408.17l6.04-4.91c-29.79-36.48-78.91-39.15-90.89-19.39-11.15,33.66,34.42,29.46,14.83,7.77-6.55,8.99-8.06-1.94-8.06-1.94,22.57-36.7,78.09,18.47,78.09,18.47Z"/>
      <path class="cls-1" d="M730.71,392.84c-8.84,6.98-23.55,100.08,26.69,113.47,46.28,8.97,45.93-19.36,45.93-19.36-7.9-16.06-17.6-2.83-14.29-.94,3.31,1.89,4.72,22.67-34,7.56-38.72-15.11-24.33-100.72-24.33-100.72Z"/>
      <path class="cls-1" d="M716.8,496.96c103.23,96.17,148.85-42.13,102.36-52.98-66.23-7.09-40.23,43.44-40.23,43.44,17.27-37.31,29.93-8.97,29.93-8.97,0,0,.5,59.03-59.01,29.62-59.5-29.41-24.56-130.74-24.56-130.74-44.86,59.91-8.5,119.63-8.5,119.63Z"/>
      <path class="cls-1" d="M686.75,490.25s9.27,17.95,13.52,6.7c4.25-11.24-7.11-46.5-7.11-46.5-12.75,32.94-6.41,39.8-6.41,39.8Z"/>
      <path class="cls-1" d="M579.85,453.75c66.11,59.37,110.03-17.18,110.03-17.18-50.06,55.41-110.03,17.18-110.03,17.18Z"/>
      <path class="cls-1" d="M575.6,436.57s8.54,27.26,50.53,26.07c41.99-1.19,76.76-62.11,76.76-62.11-100.51,117.65-160.31-7.79-91.87,0,0,0,10.39,13.7-4.25,20.31,0,0,33.86,33,37.95-31.2-32.04-58.34-93.52,22.57-69.11,46.94Z"/>
      <path class="cls-1" d="M878.64,403.26c-38.52-.56-38.52,59.95,0,59.38,38.52.56,38.52-59.95,0-59.38Z"/>
      <path class="cls-1" d="M915.07,309.66c19.56-28.17,14.08-75.11,14.08-75.11l-10.95,6.26c3.52-27.39-15.65-52.82-15.65-52.82l-8.11,5.09c-3.81-28.17-11.11-35.99-11.11-35.99v49.29c50,75.01,0,186.48,0,186.48,71.54-81.91,31.75-83.19,31.75-83.19Z"/>
      <path class="cls-1" d="M985.48,191.65c-64.25,45.42-26.67,98.69-65.38,167.65,0,0,91.59-63.76,36.9-78.32,0,0,35.6-18.12,28.48-89.33Z"/>
      <path class="cls-1" d="M1072,372.76s-12.23-28.02-22.53-34.64c32.28,6.44,26.13,49.23,66.95,37.65,0,0-73.06-90.74-155.42-31.63,41.87-10,36.31,16.36,74.17,20.66,0,0-9.34-29.91-21.27-28.88,33.32-13.25,17.08,56.06,58.09,36.83Z"/>
      <path class="cls-1" d="M885.61,472.8c-5.43-4.74-8.51-4.73-13.94,0-13.97,12.5,6.97,51.67,6.97,51.67,0,0,20.94-39.16,6.97-51.67Z"/>
      <path class="cls-1" d="M897.51,505.23c-14.28,15-14.19,52.31-14.19,52.31,0,0,21.45-39.23,28.37-41.16,6.92-1.92.09-26.15-14.19-11.15Z"/>
      <path class="cls-1" d="M890.44,396.51l8.43,2.31c52.59-45.4,76.68-36.16,94.38-21.49,34.79,37-46.43,59.68-23.08,8.41-36.16-10-44.63,56.94,4.62,50.84,49.24-6.1,42.32-43.73,42.32-43.73-37.7-98.3-126.66,3.66-126.66,3.66Z"/>
      <path class="cls-1" d="M902.29,403.26l6.04,4.91s55.52-55.17,78.09-18.47c0,0-1.51,10.94-8.06,1.94-19.58,21.7,25.99,25.87,14.83-7.78-12.03-19.78-61.09-17.07-90.89,19.39Z"/>
      <path class="cls-1" d="M1002.23,493.56c-38.72,15.11-37.31-5.67-34-7.56,3.31-1.89-6.39-15.11-14.29.94,0,0-.35,28.33,45.93,19.36,50.25-13.56,35.57-106.14,26.7-113.47,0,0,14.39,85.6-24.34,100.72Z"/>
      <path class="cls-1" d="M1040.48,496.96s36.36-59.73-8.5-119.63c0,0,34.94,101.33-24.56,130.74-59.5,29.41-59.01-29.62-59.01-29.62,0,0,12.67-28.33,29.93,8.97,0,0,26-50.53-40.23-43.45-46.5,10.88-.86,149.14,102.36,52.98Z"/>
      <path class="cls-1" d="M1057.01,496.96c4.25,11.24,13.52-6.7,13.52-6.7,0,0,6.34-6.86-6.4-39.8,0,0-11.36,35.26-7.11,46.5Z"/>
      <path class="cls-1" d="M1080.15,465.23s2.83,28.33,30.7,24.56c10.23-15.08-20.87-9.06-30.7-24.56Z"/>
      <path class="cls-1" d="M1177.43,453.76s-59.97,38.23-110.03-17.18c0,0,43.92,76.55,110.03,17.18Z"/>
      <path class="cls-1" d="M1054.39,400.53s34.77,60.92,76.76,62.11c41.99,1.19,50.53-26.07,50.53-26.07,24.41-24.48-37.15-105.23-69.11-46.94,4.08,64.2,37.95,31.2,37.95,31.2-14.64-6.61-4.25-20.31-4.25-20.31,68.59-7.64,8.37,117.54-91.87,0Z"/>
      <path class="cls-1" d="M1611.94,366.58c-3.76,13.54-80.49,55.49-80.49,55.49,0,0,72.97.18,102.31-27.75,29.34-27.92-18.05-41.29-21.82-27.75Z"/>
      <path class="cls-1" d="M1546.49,322.94c-36.11,63.19-142.18,95.54-142.18,95.54,121.07,4.65,183.06-57.23,183.06-57.23,27.08-72.48-40.88-38.31-40.88-38.31Z"/>
      <path class="cls-1" d="M1596.14,431.24c.04,1.78,101.66,49.81,107.58,0-5.51-49.8-108.11-1.78-107.58,0Z"/>
      <path class="cls-1" d="M1611.94,495.9c3.76,13.54,51.16.18,21.82-27.75-29.34-27.92-102.31-27.75-102.31-27.75,0,0,76.73,41.95,80.49,55.49Z"/>
      <path class="cls-1" d="M1404.31,443.99s106.07,32.35,142.18,95.54c0,0,67.96,34.17,40.88-38.31,0,0-61.99-61.88-183.06-57.24Z"/>
      <path class="cls-1" d="M120.74,483.39c3.76-13.54,80.49-55.49,80.49-55.49,0,0-72.97-.18-102.31,27.75-29.34,27.92,18.05,41.29,21.82,27.75Z"/>
      <path class="cls-1" d="M186.19,527.03c36.11-63.19,142.18-95.54,142.18-95.54-121.07-4.65-183.06,57.23-183.06,57.23-27.08,72.48,40.88,38.31,40.88,38.31Z"/>
      <path class="cls-1" d="M35.49,432.36c24.45,27.33,101.05-13.63,101.05-13.63-.13-1.81-101.6-49.78-107.58,0,0,0-.49,7.7,6.53,13.63Z"/>
      <path class="cls-1" d="M120.74,354.07c-3.76-13.54-51.16-.18-21.82,27.75,29.34,27.92,102.31,27.75,102.31,27.75,0,0-76.73-41.95-80.49-55.49Z"/>
      <path class="cls-1" d="M145.31,348.74s61.99,61.88,183.06,57.24c0,0-106.07-32.35-142.18-95.54,0,0-67.96-34.17-40.88,38.31Z"/>
    </g>
  </g>
</svg>