<?xml version="1.0" encoding="UTF-8"?>
<svg xmlns="http://www.w3.org/2000/svg" version="1.1" viewBox="0 0 493.07 382.03">
  <defs>
    <style>
      .cls-1 {
        fill:rgb(11, 11, 11);
        stroke: ;
        stroke-linecap: round;
        stroke-linejoin: round;
      }
    </style>
  </defs>
  <!-- Generator: Adobe Illustrator 28.7.4, SVG Export Plug-In . SVG Version: 1.2.0 Build 166)  -->
  <g>
    <g id="Layer_1">
      <g>
        <path class="cls-1" d="M201.58,80.78s-4.12-10.78,12.38-23.14c3.57-2.38-38-26.04-51.81,75.65,0,0,82.49-15.57,111.81-4.12,0,0,48.59-56.47-75.14-23.59,0,0,19.26-27.37,66.45-24.58,0,0-2.27-52.38-63.69-.22Z"/>
        <path class="cls-1" d="M294.72,183.45s-17.3-30.01-31.89-37.11c45.7,6.92,36.97,52.73,94.78,40.36,0,0-103.41-97.2-220.04-33.95,59.28-10.69,51.4,17.54,105.01,22.16,0,0-13.21-32.04-30.1-30.93,47.18-14.17,24.16,60.04,82.24,39.47Z"/>
        <path class="cls-1" d="M37.66,208.78l11.94,2.48c74.47-48.59,108.58-38.69,133.63-22.96,49.24,39.64-65.76,63.89-32.69,8.99-51.2-10.73-63.21,60.95,6.52,54.45,69.72-6.5,59.93-46.81,59.93-46.81-53.34-105.29-179.33,3.86-179.33,3.86Z"/>
        <path class="cls-1" d="M54.44,216.02l8.55,5.26s78.63-59.05,110.56-19.74c0,0-2.14,11.71-11.42,2.08-27.73,23.23,36.79,27.71,21-8.32-17.03-21.18-86.49-18.31-128.7,20.72Z"/>
        <path class="cls-1" d="M195.9,312.77c-54.83,16.16-52.82-6.09-48.14-8.11,4.68-2.02-9.04-16.19-20.23,1,0,0-.5,30.34,65.02,20.76,71.15-14.49,50.4-113.64,37.84-121.49,0,0,20.34,91.68-34.49,107.84Z"/>
        <path class="cls-1" d="M250.05,316.43s51.51-63.94-11.99-128.11c0,0,49.44,108.53-34.82,139.99-84.26,31.46-83.53-31.75-83.53-31.75,0,0,17.95-30.33,42.38,9.62,0,0,36.83-54.1-56.94-46.54-65.84,11.63-1.27,159.71,144.9,56.79Z"/>
        <path class="cls-1" d="M273.45,316.44c6.01,12.04,19.14-7.17,19.14-7.17,0,0,8.99-7.35-9.05-42.62,0,0-16.1,37.75-10.09,49.79Z"/>
        <path class="cls-1" d="M306.23,282.47s4,30.34,43.45,26.31c14.49-16.14-29.54-9.71-43.45-26.31Z"/>
        <path class="cls-1" d="M443.96,270.24s-84.93,40.9-155.78-18.45c0,0,62.15,81.99,155.78,18.45Z"/>
        <path class="cls-1" d="M269.78,213.17s49.2,65.25,108.65,66.55c59.45,1.3,71.55-27.89,71.55-27.89,34.58-26.2-52.56-112.7-97.84-50.3,5.75,68.74,53.71,33.43,53.71,33.43-20.72-7.09-6.01-21.75-6.01-21.75,97.11-8.15,11.8,125.87-130.07-.05Z"/>
      </g>
    </g>
  </g>
</svg>